<svg xmlns="http://www.w3.org/2000/svg" width="442.642" height="518" viewBox="121.693 0 442.642 518"><path d="M564.335.813V295.93c0 121.925-99.425 221.35-221.29 221.35-121.926 0-221.352-99.425-221.352-221.35V.812h442.642z" fill="#E02A2C"/><path fill="#FFF" d="M343.355 2.61c17.356 0 31.737 14.692 31.737 32.79 0 13.143-7.624 24.796-18.224 30.003l1.178 71.656c21.2-1.55 79.714 11.962 102.96 29.38l-21.45 33.04c-24.98-26.655-78.225-57.277-97.38-35.83-17.045-17.48-59.69 1.86-97.07 35.52l-21.198-31.862c31.18-15.31 68.247-28.452 102.96-29.072l1.734-73.453c-9.98-5.517-17.046-16.55-17.046-29.444 0-18.038 14.133-32.73 31.8-32.73z"/><path d="M344.223 165.448l-1.114 41.035c-.313.62-.932.62-1.49 0l-1.114-40.663c-5.27-4.96-13.08-6.385-22.377-5.02l1.114 352.02c18.72 2.416 28.886 2.416 47.604.06l1.24-352.7c-9.733-1.612-18.225-.31-23.865 5.268z" fill="#FFF"/><path d="M398.152 233.44c-1.107 4.985-.158 9.833 4.353 12.645-4.592 3.333-9.773 5.84-14.103 9.536-2.503-1.194-4.953-2.418-7.214-3.586 2.995-8.02 9.987-13.96 16.964-18.595z" fill="#F5E12A"/><path d="M252.618 270.523l.87-2.156c-.72-1.818-1.032-4.762-2.245-5.225-3.652 4.225-6.88 2.445-8.795-1.197-3.75 5.638-5.802 4.803-7.146-.098-2.22 4.03-5.458 4.313-6.5-.537h21.182c.787-.352.365-.607 0-.987H226.32c-2.982-.973-3.415-3.802-2.013-7.964 3.962-13.063 12.083-24.5 24.096-31.154 10.022-5.39 21.315-7.48 33.328-7.694 15.594 25.29 20.2 51.358-2.56 73.46l-33.9-1.75c-5.984-.37-17.36-1.93-18.86-9.412h23.574c.787-.352.364-.607 0-.987H226.52c.76-2.568 4.155-2.39 5.267-1.02 2.534-3.743 4.428-7.478 7.13-.952 2.627-4.814 4.628-4.61 7.13-.33 1.008-3.23 3.81-2.72 6.57-1.997z" fill="#f5e12a"/><path d="M268.04 226.125c5 0 9.117 4.286 9.117 9.49 0 5.513-4.117 9.8-9.117 9.8-5 0-9.118-4.288-9.118-9.8 0-5.204 4.118-9.49 9.118-9.49z" fill="#e02a2c"/><path d="M284.915 213.59c27.667.45 54.005 11.78 75.306 26.26l7.605 4.648c4.264-17.74 15.712-28.292 31.93-34.077-5.348 6.52-7.16 13.832-.093 19.124l-.036.093c-8.74 4.767-16.992 11.763-20.836 21.14-4.697-2.487-8.214-4.542-9.06-5.227-1.512-1.17-2.844.937-1.623 2.174 12.864 7.134 26.22 15.833 40.988 18.355 1.863.14 1.938-2.397.23-2.757-6.434-1.046-12.45-3.777-18.334-6.486 4.116-2.836 8.45-5.338 12.564-8.175l.005.014c.213 2.526 3.515 12.74 6.947 14.275 2.593 1.16 6.766.317 10.147.478 12.525.27 19.874-9.4 10.42-17.417-7.264-5.524-13.355-11.517-23.493-15.893l.824-2.855c8.056 1.236 11.79-1.328 15.813-8.66 10.063 3.67 14.745.703 21.758-7.328 8.393 6.66 15.466 1.828 21.94-4.188l2.285 1.618c-5.46 9.125-10.135 18.69-14.535 28.36-2.356 6.76-1.65 14.028-2.56 21.032-3.274 29.507-47.34 28.268-72.222 28.55-24.288-.328-48.576-.524-72.858-.666l8.317 5.9c-1.065 2.506-2.134 5.012-3.2 7.518-.033.104-.067.205-.104.308-4.085-3.66-8.373-7.233-11.816-11.522-.986-1.65-2.97-.2-2.264 1.408 3.98 4.702 8.484 8.998 13.24 12.92-.727 2.813-.98 5.394-.702 8.784l-2.194 1.618c-13.935-10.287-21.176-14.794-18.375-25.41l-8.06-.365c21.8-20.89 16.242-49.96 2.048-73.55z" fill="#f5e12a"/><path d="M426.194 220.466c4.828 7.323 11.05 13.81 14.86 21.76.58 1.794-1.774 2.52-2.514.862-3.953-7.602-9.793-14.01-14.55-21.104-1.012-1.563 1.064-2.928 2.204-1.518zM447.572 214.574c.54 8.938.78 17.903.9 26.858-.004 1.908-2.45 1.79-2.645 0-.396-8.79-.075-17.646-.86-26.417-.3-1.872 2.13-2.185 2.605-.44zM326.37 223.763c.46 1.052 1.767 3.546 3.338 6.513 2.532-1 4.965-1.897 6.755-2.485 1.8-.552 2.373 1.898.796 2.627-1.674.55-3.913 1.37-6.26 2.292 1.963 3.696 4.08 7.687 5.465 10.526 3.21-1.868 6.48-3.635 9.77-5.36-.48-1.594-.898-3-1.224-4.077-.548-1.803 1.817-2.492 2.524-.82l1.098 3.665c.997-.5 1.84-.9 2.428-1.157 1.75-.716 2.517 1.673 1.015 2.54-.623.272-1.548.717-2.65 1.272.867 2.91 1.717 5.827 2.53 8.752 2.778-1.353 5.635-2.54 8.53-3.614-.145-.545-.285-.993-.42-1.308-.746-1.722 1.526-2.69 2.42-1.108.168.395.34.94.517 1.592.34-.097.655-.177.94-.24 1.837-.375 2.188 2.12.548 2.69-.263.058-.554.13-.867.222.81 3.73 1.278 7.522 1.98 11.27.442 1.838-1.955 2.363-2.564.657-.654-3.696-1.224-7.405-1.94-11.09-2.876 1.06-5.665 2.278-8.43 3.592.217.84.382 1.536.477 2.024.36 1.857-2.063 2.27-2.596.537-.062-.335-.167-.782-.3-1.317-.447.26-.74.462-.827.583-1.148 1.54-2.968-.124-2.106-1.647.27-.372 1.087-.935 2.236-1.586-.808-2.934-1.664-5.854-2.524-8.772-3.17 1.668-6.314 3.383-9.42 5.167.183.44.31.79.366 1.03.54 1.545-2.26 2.252-2.65.38-2.16 1.28-3.15-1.578-1.123-2.487-1.354-2.76-3.604-7.002-5.66-10.872l-.023-.048c-3.036 1.277-6.108 2.508-8.98 4.13 1.154 2.596 1.974 4.795 2.14 6.09.242 1.885-2.193 2.112-2.615.356-2.877-8.863-7.673-17.117-12.32-25.17-.97-1.59 1.143-2.896 2.245-1.452 3.333 5.8 6.51 11.693 9.415 17.72 2.833-1.59 5.832-2.86 8.83-4.102-1.524-2.88-2.783-5.29-3.263-6.386-.77-1.716 1.496-2.706 2.4-1.13z" fill="#e02a2c"/><path d="M261.47 234.563c-.866 1.24.31 4.587 1.18 5.516.867 1.24 4.09-1.55 4.09-1.55s-4.96-3.967-5.27-3.967z" fill="#f5e12a"/><g><path d="M287.946 341.613c1.107 4.986.158 9.834-4.353 12.646 4.592 3.332 9.773 5.84 14.103 9.535 2.503-1.195 4.953-2.42 7.214-3.587-2.995-8.02-9.987-13.96-16.964-18.595zM433.48 378.697l-.87-2.156c.72-1.817 1.032-4.76 2.245-5.224 3.652 4.225 6.88 2.445 8.795-1.197 3.75 5.637 5.802 4.802 7.146-.1 2.22 4.03 5.458 4.314 6.5-.536h-21.182c-.787-.352-.365-.607 0-.987h23.663c2.983-.973 3.416-3.802 2.014-7.964-3.96-13.062-12.082-24.5-24.095-31.153-10.022-5.39-21.315-7.48-33.328-7.694-15.593 25.29-20.2 51.358 2.562 73.46l33.898-1.75c5.984-.37 17.36-1.93 18.86-9.412h-23.574c-.787-.352-.364-.607 0-.987h23.465c-.76-2.568-4.157-2.39-5.27-1.02-2.533-3.743-4.427-7.478-7.13-.952-2.626-4.815-4.627-4.612-7.13-.332-1.007-3.228-3.81-2.72-6.57-1.996z" fill="#f5e12a"/><path d="M418.058 334.3c-5 0-9.117 4.285-9.117 9.49 0 5.512 4.118 9.798 9.118 9.798s9.118-4.287 9.118-9.798c0-5.205-4.118-9.49-9.118-9.49z" fill="#e02a2c"/><path d="M401.183 321.764c-27.667.45-54.005 11.78-75.306 26.26l-7.604 4.648c-4.264-17.74-15.712-28.292-31.93-34.077 5.348 6.518 7.16 13.83.093 19.123l.036.093c8.74 4.768 16.992 11.764 20.836 21.142 4.697-2.488 8.214-4.543 9.06-5.228 1.512-1.17 2.844.937 1.623 2.174-12.863 7.134-26.218 15.833-40.987 18.355-1.863.142-1.938-2.396-.23-2.756 6.434-1.046 12.45-3.777 18.334-6.486-4.115-2.835-8.448-5.337-12.563-8.174l-.005.014c-.215 2.526-3.517 12.74-6.95 14.275-2.592 1.158-6.765.316-10.146.477-12.525.27-19.874-9.4-10.42-17.417 7.264-5.525 13.355-11.518 23.493-15.894l-.823-2.854c-8.056 1.236-11.79-1.328-15.813-8.66-10.062 3.67-14.744.703-21.757-7.328-8.393 6.66-15.466 1.828-21.94-4.188l-2.285 1.618c5.46 9.125 10.135 18.69 14.535 28.36 2.356 6.76 1.65 14.028 2.56 21.032 3.274 29.507 47.34 28.268 72.222 28.55 24.288-.328 48.576-.524 72.858-.666l-8.317 5.9c1.065 2.506 2.134 5.012 3.2 7.518.033.104.067.205.104.308 4.085-3.66 8.373-7.233 11.816-11.522.986-1.65 2.97-.2 2.264 1.408-3.98 4.702-8.484 8.998-13.24 12.92.727 2.813.98 5.394.702 8.784l2.194 1.618c13.935-10.287 21.176-14.794 18.375-25.41l8.06-.365c-21.798-20.89-16.24-49.96-2.047-73.55z" fill="#f5e12a"/><path d="M259.904 328.64c-4.828 7.323-11.05 13.81-14.86 21.76-.58 1.794 1.774 2.52 2.514.862 3.953-7.602 9.793-14.01 14.55-21.104 1.012-1.563-1.064-2.928-2.204-1.518zM238.526 322.748c-.54 8.938-.78 17.903-.9 26.858.004 1.908 2.45 1.79 2.645 0 .397-8.79.076-17.646.862-26.417.3-1.873-2.132-2.186-2.606-.442zM359.727 331.937c-.46 1.052-1.766 3.546-3.337 6.513-2.532-1-4.965-1.897-6.755-2.485-1.8-.553-2.373 1.897-.796 2.626 1.672.55 3.91 1.372 6.258 2.293-1.963 3.697-4.08 7.688-5.465 10.527-3.21-1.868-6.48-3.635-9.77-5.36.48-1.594.898-3 1.224-4.077.55-1.802-1.816-2.49-2.523-.818l-1.098 3.664c-.997-.5-1.84-.902-2.428-1.158-1.75-.716-2.517 1.673-1.015 2.54.623.272 1.548.717 2.65 1.272-.867 2.91-1.717 5.827-2.53 8.752-2.778-1.353-5.635-2.54-8.53-3.614.145-.545.285-.993.42-1.308.746-1.722-1.526-2.69-2.42-1.108-.168.395-.34.94-.517 1.592-.34-.097-.655-.177-.94-.24-1.837-.375-2.188 2.12-.548 2.69.263.058.554.13.867.222-.81 3.73-1.278 7.522-1.98 11.27-.442 1.838 1.955 2.363 2.564.657.652-3.696 1.222-7.405 1.938-11.09 2.876 1.06 5.665 2.278 8.43 3.592-.217.84-.382 1.535-.477 2.023-.36 1.858 2.064 2.27 2.597.538.063-.334.168-.78.3-1.316.448.26.74.462.828.583 1.148 1.54 2.968-.124 2.106-1.647-.268-.372-1.086-.935-2.235-1.586.808-2.934 1.664-5.854 2.524-8.772 3.168 1.668 6.312 3.383 9.418 5.167-.183.438-.31.788-.366 1.028-.54 1.546 2.26 2.253 2.65.382 2.16 1.278 3.15-1.58 1.123-2.488 1.354-2.76 3.604-7.002 5.66-10.872l.023-.048c3.036 1.277 6.108 2.508 8.98 4.13-1.154 2.596-1.974 4.795-2.14 6.09-.242 1.885 2.193 2.112 2.615.356 2.877-8.863 7.673-17.117 12.32-25.17.97-1.59-1.143-2.896-2.245-1.452-3.333 5.8-6.51 11.693-9.415 17.72-2.833-1.59-5.832-2.86-8.83-4.102 1.524-2.88 2.783-5.29 3.263-6.386.77-1.716-1.496-2.706-2.4-1.13z" fill="#e02a2c"/><path d="M424.627 342.737c.867 1.24-.31 4.587-1.178 5.516-.87 1.24-4.092-1.55-4.092-1.55s4.96-3.966 5.27-3.966z" fill="#f5e12a"/></g></svg>