<?xml version="1.0" encoding="UTF-8" standalone="no"?>
<svg width="28px" height="28px" viewBox="0 0 28 28" version="1.1" xmlns="http://www.w3.org/2000/svg" xmlns:xlink="http://www.w3.org/1999/xlink">
    <!-- Generator: Sketch 3.7.2 (28276) - http://www.bohemiancoding.com/sketch -->
    <title>Capa_1</title>
    <desc>Created with Sketch.</desc>
    <defs></defs>
    <g id="Page-1" stroke="none" stroke-width="1" fill="none" fill-rule="evenodd">
        <g id="Desktop-HD" transform="translate(-1333.000000, -4793.000000)" fill="#FFFFFF">
            <g id="Footer" transform="translate(0.000000, 4682.000000)">
                <g id="Social-media" transform="translate(1161.000000, 111.000000)">
                    <g id="social" transform="translate(172.058824, 0.000000)">
                        <g id="Capa_1">
                            <path d="M13.8733529,0 C6.22361765,0 0,6.22361765 0,13.8733529 C0,21.5225294 6.22361765,27.7467059 13.8733529,27.7467059 C21.5225294,27.7467059 27.7467059,21.5225294 27.7467059,13.8733529 C27.7467059,6.22361765 21.5236471,0 13.8733529,0 L13.8733529,0 Z M17.3235294,14.3617647 L15.0664412,14.3617647 L15.0664412,22.4065882 L11.7218824,22.4065882 L11.7218824,14.3617647 L10.1320294,14.3617647 L10.1320294,11.5184706 L11.7218824,11.5184706 L11.7218824,9.67938235 C11.7218824,8.36223529 12.3477647,6.30408824 15.0971765,6.30408824 L17.5755588,6.31358824 L17.5755588,9.07361765 L15.7767059,9.07361765 C15.4838824,9.07361765 15.0675588,9.22002941 15.0675588,9.84814706 L15.0675588,11.5190294 L17.6157941,11.5190294 L17.3235294,14.3617647 L17.3235294,14.3617647 Z" id="Shape"></path>
                        </g>
                    </g>
                </g>
            </g>
        </g>
    </g>
</svg>