<?xml version="1.0" encoding="UTF-8" standalone="no"?>
<svg width="29px" height="28px" viewBox="0 0 29 28" version="1.1" xmlns="http://www.w3.org/2000/svg" xmlns:xlink="http://www.w3.org/1999/xlink">
    <!-- Generator: Sketch 3.7.2 (28276) - http://www.bohemiancoding.com/sketch -->
    <title>Group</title>
    <desc>Created with Sketch.</desc>
    <defs></defs>
    <g id="Page-1" stroke="none" stroke-width="1" fill="none" fill-rule="evenodd">
        <g id="Desktop-HD" transform="translate(-1275.000000, -4793.000000)" fill="#FFFFFF">
            <g id="Footer" transform="translate(0.000000, 4682.000000)">
                <g id="Social-media" transform="translate(1161.000000, 111.000000)">
                    <g id="social-media" transform="translate(114.705882, 0.000000)">
                        <g id="Capa_1">
                            <g id="Group">
                                <path d="M13.8727941,16.6507059 C15.4034118,16.6507059 16.6512647,15.4050882 16.6512647,13.8733529 C16.6512647,13.2687059 16.4534412,12.7104412 16.1259706,12.2544412 C15.6213529,11.5547941 14.801,11.096 13.8744706,11.096 C12.9473824,11.096 12.1275882,11.5542353 11.6218529,12.2538824 C11.2932647,12.7098824 11.0971176,13.2681471 11.0965588,13.8727941 C11.0948824,15.4045294 12.3416176,16.6507059 13.8727941,16.6507059 L13.8727941,16.6507059 Z" id="Shape"></path>
                                <polygon id="Shape" points="19.9377059 10.4757059 19.9377059 8.14764706 19.9377059 7.80117647 19.5895588 7.80229412 17.2626176 7.80955882 17.2715588 10.4846471"></polygon>
                                <path d="M13.8733529,0 C6.22361765,0 0,6.22361765 0,13.8733529 C0,21.5225294 6.22361765,27.7467059 13.8733529,27.7467059 C21.5225294,27.7467059 27.7467059,21.5225294 27.7467059,13.8733529 C27.7467059,6.22361765 21.5236471,0 13.8733529,0 L13.8733529,0 Z M21.7633824,12.2544412 L21.7633824,18.7144412 C21.7633824,20.3970588 20.3953824,21.7645 18.7138824,21.7645 L9.03282353,21.7645 C7.35076471,21.7645 5.98332353,20.3970588 5.98332353,18.7144412 L5.98332353,12.2544412 L5.98332353,9.03338235 C5.98332353,7.35132353 7.35076471,5.98388235 9.03282353,5.98388235 L18.7133235,5.98388235 C20.3953824,5.98388235 21.7633824,7.35132353 21.7633824,9.03338235 L21.7633824,12.2544412 L21.7633824,12.2544412 Z" id="Shape"></path>
                                <path d="M18.1891471,13.8733529 C18.1891471,16.2522647 16.2533824,18.1891471 13.8733529,18.1891471 C11.4933235,18.1891471 9.55811765,16.2522647 9.55811765,13.8733529 C9.55811765,13.3011176 9.67211765,12.7540294 9.87552941,12.2544412 L7.52008824,12.2544412 L7.52008824,18.7144412 C7.52008824,19.5493235 8.19794118,20.2255 9.03226471,20.2255 L18.7127647,20.2255 C19.5459706,20.2255 20.2249412,19.5493235 20.2249412,18.7144412 L20.2249412,12.2544412 L17.8683824,12.2544412 C18.0734706,12.7540294 18.1891471,13.3011176 18.1891471,13.8733529 L18.1891471,13.8733529 Z" id="Shape"></path>
                            </g>
                        </g>
                    </g>
                </g>
            </g>
        </g>
    </g>
</svg>