<?xml version="1.0" encoding="utf-8"?>
<!-- Generator: Adobe Illustrator 16.0.5, SVG Export Plug-In . SVG Version: 6.00 Build 0)  -->
<!DOCTYPE svg PUBLIC "-//W3C//DTD SVG 1.1//EN" "http://www.w3.org/Graphics/SVG/1.1/DTD/svg11.dtd">
<svg version="1.1" xmlns="http://www.w3.org/2000/svg" xmlns:xlink="http://www.w3.org/1999/xlink" x="0px" y="0px"
	 width="485.381px" height="141.42px" viewBox="0 0 485.381 141.42" enable-background="new 0 0 485.381 141.42"
	 xml:space="preserve">
<g id="Layer_1">
</g>
<g id="Layer_3">
	<g>
		<g>
			<path fill="#8CC2C0" d="M74.954,63.81c-2.845,0-5.775-2.248-6.51-4.996l-2.151-8.029c-0.736-2.748-1.829-6.826-2.428-9.061
				c-0.599-2.236-3.417-4.066-6.261-4.066H35.661c-2.845,0-4.57,2.248-3.834,4.996l5.974,22.295
				c0.736,2.748,3.666,4.996,6.511,4.996h6.662c2.845,0,7.5,0,10.345,0h15.887V63.81H74.954z"/>
			<path fill="#8CC2C0" d="M138.715,91.101l-5.974-22.295c-0.736-2.748-3.666-4.996-6.511-4.996h-6.662c-2.844,0-7.5,0-10.344,0
				H93.339v6.135h2.249c2.845,0,5.774,2.248,6.511,4.994l2.152,8.031c0.736,2.746,1.829,6.824,2.428,9.061s3.417,4.064,6.262,4.064
				h21.942C137.727,96.095,139.451,93.847,138.715,91.101z"/>
			<path fill="#8CC2C0" d="M88.339,56.56c0-2.846,2.248-5.775,4.996-6.51l8.03-2.152c2.748-0.736,6.825-1.828,9.061-2.428
				c2.235-0.6,4.065-3.416,4.065-6.262V17.267c0-2.844-2.249-4.57-4.996-3.834L87.2,19.405c-2.748,0.736-4.996,3.666-4.996,6.512
				v6.662c0,2.844,0,7.5,0,10.344V63.81v6.135v7.248c0,2.846-2.248,5.775-4.996,6.512l-8.03,2.15
				c-2.748,0.736-6.825,1.83-9.061,2.43c-2.236,0.598-4.066,3.416-4.066,6.262v21.941c0,2.844,2.249,4.568,4.996,3.832l22.295-5.973
				c2.748-0.736,4.996-3.666,4.996-6.512v-6.66c0-2.846,0-7.5,0-10.344V69.944V63.81V56.56z"/>
		</g>
		<g>
			<path fill="#2B2F36" d="M191.396,96.651h-11.388c-5.251,0-9.312-1.453-12.186-4.363c-2.873-2.908-4.31-6.953-4.31-12.133V44.716
				c0-5.25,1.437-9.312,4.31-12.186c2.874-2.873,6.935-4.311,12.186-4.311h11.388c5.249,0,9.312,1.438,12.185,4.311
				s4.31,6.936,4.31,12.186v3.832c0,1.277-0.604,1.916-1.809,1.916h-6.705c-1.207,0-1.81-0.639-1.81-1.916v-3.406
				c0-5.25-2.554-7.875-7.662-7.875h-8.407c-5.108,0-7.663,2.625-7.663,7.875v34.588c0,5.252,2.554,7.875,7.663,7.875h8.407
				c5.108,0,7.662-2.623,7.662-7.875v-9.578c0-0.709-0.391-1.064-1.17-1.064h-8.62c-1.208,0-1.809-0.602-1.809-1.809v-5.428
				c0-1.205,0.602-1.809,1.809-1.809h17.879c1.49,0,2.235,0.744,2.235,2.234v17.879c0,5.18-1.455,9.225-4.363,12.133
				C200.618,95.198,196.574,96.651,191.396,96.651z"/>
			<path fill="#2B2F36" d="M241.521,96.651h-5.427c-5.108,0-9.029-1.438-11.76-4.311c-2.732-2.873-4.098-6.934-4.098-12.186V58.87
				c0-5.32,1.365-9.4,4.098-12.238c2.73-2.838,6.651-4.258,11.76-4.258h5.427c5.462,0,9.009,1.881,10.642,5.641h0.426V23.644
				c0-1.205,0.602-1.809,1.81-1.809h6.811c1.206,0,1.81,0.604,1.81,1.809v71.197c0,1.209-0.604,1.811-1.81,1.811h-6.811
				c-1.208,0-1.81-0.602-1.81-1.811v-3.83h-0.426C250.53,94.772,246.983,96.651,241.521,96.651z M252.589,78.56V60.468
				c0-6.031-2.91-9.047-8.727-9.047h-5.641c-5.108,0-7.662,2.625-7.662,7.875v20.434c0,5.252,2.554,7.875,7.662,7.875h5.641
				C249.679,87.604,252.589,84.591,252.589,78.56z"/>
			<path fill="#2B2F36" d="M282.812,113.892h-5.641c-1.207,0-1.81-0.604-1.81-1.809v-5.428c0-1.277,0.603-1.916,1.81-1.916h2.447
				c4.327,0,7.325-0.852,8.993-2.555c1.666-1.703,3.068-4.506,4.204-8.406h-4.257c-1.064,0-1.809-0.604-2.235-1.811L272.17,44.185
				c-0.284-1.207,0.176-1.811,1.384-1.811h7.13c1.134,0,1.844,0.604,2.129,1.811l11.6,41.717h0.426l11.6-41.717
				c0.213-1.207,0.921-1.811,2.128-1.811h6.811c1.347,0,1.916,0.639,1.703,1.916L302.5,95.479
				c-1.633,5.961-3.938,10.518-6.917,13.676C292.603,112.312,288.346,113.892,282.812,113.892z"/>
			<path fill="#2B2F36" d="M334.64,96.651h-6.705c-1.207,0-1.809-0.602-1.809-1.811V44.185c0-1.207,0.602-1.811,1.809-1.811h6.705
				c1.205,0,1.809,0.604,1.809,1.811v3.83h0.426c1.703-3.76,5.285-5.641,10.749-5.641h4.683c5.178,0,9.152,1.42,11.919,4.258
				c2.767,2.838,4.15,6.918,4.15,12.238v35.971c0,1.209-0.638,1.811-1.915,1.811h-6.705c-1.207,0-1.809-0.602-1.809-1.811V59.296
				c0-5.25-2.59-7.875-7.769-7.875h-5.001c-5.818,0-8.727,3.016-8.727,9.047v34.373C336.448,96.05,335.845,96.651,334.64,96.651z"/>
			<path fill="#2B2F36" d="M381.678,33.329v-9.686c0-1.133,0.567-1.701,1.703-1.701h6.917c1.134,0,1.703,0.568,1.703,1.701v9.686
				c0,1.207-0.568,1.809-1.703,1.809h-6.917C382.245,35.138,381.678,34.536,381.678,33.329z M381.678,94.841V44.185
				c0-1.207,0.567-1.811,1.703-1.811h6.811c1.206,0,1.809,0.604,1.809,1.811v50.656c0,0.711-0.125,1.189-0.372,1.438
				c-0.25,0.25-0.692,0.373-1.331,0.373h-6.811C382.28,96.651,381.678,96.05,381.678,94.841z"/>
			<path fill="#2B2F36" d="M425.522,96.651h-4.15c-5.251,0-9.312-1.453-12.186-4.363c-2.873-2.908-4.31-6.953-4.31-12.133V58.87
				c0-5.25,1.437-9.312,4.31-12.186c2.874-2.873,6.935-4.311,12.186-4.311h23.839c1.277,0,1.916,0.604,1.916,1.811v50.656
				c0,1.209-0.638,1.811-1.916,1.811h-6.705c-1.208,0-1.809-0.602-1.809-1.811v-3.83h-0.426
				C434.568,94.772,430.985,96.651,425.522,96.651z M436.697,78.56V52.485c0-0.709-0.391-1.064-1.171-1.064h-12.664
				c-5.108,0-7.663,2.625-7.663,7.875v20.434c0,5.252,2.554,7.875,7.663,7.875h5.108C433.787,87.604,436.697,84.591,436.697,78.56z"
				/>
		</g>
	</g>
</g>
</svg>
