<svg width="25" height="25" viewBox="0 0 25 25" xmlns="http://www.w3.org/2000/svg"><title>loupe-icon</title><path d="M9.744 19.102c2.35 0 4.487-.82 6.153-2.21l7.48 7.37c.17.17.384.253.62.253.234 0 .447-.084.618-.253.342-.337.342-.884 0-1.22l-7.478-7.372c1.39-1.643 2.243-3.77 2.243-6.066 0-5.244-4.316-9.5-9.636-9.5-5.3 0-9.637 4.277-9.637 9.5 0 5.244 4.337 9.498 9.637 9.498zm0-17.27c4.36 0 7.884 3.496 7.884 7.772 0 4.296-3.525 7.77-7.884 7.77-4.36 0-7.885-3.495-7.885-7.77 0-4.276 3.546-7.772 7.884-7.772z" fill="#FFF" fill-rule="evenodd"/></svg>