<?xml version="1.0" encoding="UTF-8" standalone="no"?>
<svg width="28px" height="28px" viewBox="0 0 28 28" version="1.1" xmlns="http://www.w3.org/2000/svg" xmlns:xlink="http://www.w3.org/1999/xlink">
    <!-- Generator: Sketch 3.7.2 (28276) - http://www.bohemiancoding.com/sketch -->
    <title>Capa_1</title>
    <desc>Created with Sketch.</desc>
    <defs></defs>
    <g id="Page-1" stroke="none" stroke-width="1" fill="none" fill-rule="evenodd">
        <g id="Desktop-HD" transform="translate(-1161.000000, -4793.000000)" fill="#FFFFFF">
            <g id="Footer" transform="translate(0.000000, 4682.000000)">
                <g id="Social-media" transform="translate(1161.000000, 111.000000)">
                    <g id="social-media-1">
                        <g id="Capa_1">
                            <path d="M13.8733529,0 C6.22361765,0 0,6.22361765 0,13.8733529 C0,21.5225294 6.22361765,27.7467059 13.8733529,27.7467059 C21.5225294,27.7467059 27.7467059,21.5225294 27.7467059,13.8733529 C27.7467059,6.22361765 21.5236471,0 13.8733529,0 L13.8733529,0 Z M20.0623235,10.6981176 C20.0684706,10.8355882 20.0718235,10.9741765 20.0718235,11.1127647 C20.0718235,15.3324412 16.8608235,20.1964412 10.9859118,20.1964412 C9.18258824,20.1964412 7.50388235,19.6694706 6.09117647,18.7630588 C6.34097059,18.7926765 6.59523529,18.8077647 6.85285294,18.8077647 C8.34938235,18.8077647 9.72576471,18.297 10.8188235,17.4408824 C9.42176471,17.4151765 8.24208824,16.492 7.83582353,15.2229118 C8.03029412,15.2597941 8.23091176,15.2804706 8.436,15.2804706 C8.72714706,15.2804706 9.00991176,15.2424706 9.27758824,15.1692647 C7.81682353,14.8764412 6.7165,13.5861176 6.7165,12.0381765 C6.7165,12.0247647 6.7165,12.0107941 6.71705882,11.9979412 C7.14735294,12.2365588 7.63967647,12.3807353 8.16273529,12.3969412 C7.30661765,11.8252647 6.74276471,10.8473235 6.74276471,9.73973529 C6.74276471,9.15408824 6.89979412,8.60532353 7.17473529,8.13367647 C8.74894118,10.0660882 11.1027059,11.3368529 13.756,11.4709706 C13.7012353,11.2368235 13.6738529,10.9937353 13.6738529,10.7428235 C13.6738529,8.97973529 15.1033235,7.54970588 16.8664118,7.54970588 C17.7851176,7.54970588 18.6138529,7.93752941 19.1972647,8.55782353 C19.9254118,8.41476471 20.6071765,8.14988235 21.2257941,7.78273529 C20.9855,8.52876471 20.4808824,9.15408824 19.8197941,9.54973529 C20.4663529,9.47261765 21.0832941,9.30161765 21.6538529,9.04735294 C21.2280294,9.68664706 20.6865294,10.2493824 20.0623235,10.6981176 L20.0623235,10.6981176 Z" id="Shape"></path>
                        </g>
                    </g>
                </g>
            </g>
        </g>
    </g>
</svg>